<svg id="svg" version="1.1" xmlns="http://www.w3.org/2000/svg" xmlns:xlink="http://www.w3.org/1999/xlink" width="400" height="400" viewBox="0, 0, 400,400"><g id="svgg"><path id="path0" d="M55.600 45.400 L 55.600 47.600 71.000 47.600 L 86.400 47.600 86.400 45.400 L 86.400 43.200 71.000 43.200 L 55.600 43.200 55.600 45.400 M90.223 44.251 C 90.078 44.830,90.073 45.820,90.211 46.451 L 90.464 47.600 217.432 47.600 L 344.400 47.600 344.400 45.400 L 344.400 43.200 217.443 43.200 L 90.487 43.200 90.223 44.251 M55.600 61.600 L 55.600 63.600 71.000 63.600 L 86.400 63.600 86.400 61.600 L 86.400 59.600 71.000 59.600 L 55.600 59.600 55.600 61.600 M90.236 60.600 C 90.098 61.150,90.098 62.050,90.236 62.600 L 90.487 63.600 217.443 63.600 L 344.400 63.600 344.400 61.600 L 344.400 59.600 217.443 59.600 L 90.487 59.600 90.236 60.600 M55.600 77.600 L 55.600 79.600 71.000 79.600 L 86.400 79.600 86.400 77.600 L 86.400 75.600 71.000 75.600 L 55.600 75.600 55.600 77.600 M90.202 76.791 C 90.058 77.446,90.056 78.346,90.197 78.791 L 90.454 79.600 217.427 79.600 L 344.400 79.600 344.400 77.600 L 344.400 75.600 217.432 75.600 L 90.464 75.600 90.202 76.791 M55.600 94.000 L 55.600 96.400 71.000 96.400 L 86.400 96.400 86.400 94.000 L 86.400 91.600 71.000 91.600 L 55.600 91.600 55.600 94.000 M90.200 92.800 C 90.055 93.460,90.055 94.540,90.200 95.200 L 90.464 96.400 217.432 96.400 L 344.400 96.400 344.400 94.000 L 344.400 91.600 217.432 91.600 L 90.464 91.600 90.200 92.800 M55.600 110.400 L 55.600 112.400 71.000 112.400 L 86.400 112.400 86.400 110.400 L 86.400 108.400 71.000 108.400 L 55.600 108.400 55.600 110.400 M90.236 109.400 C 90.098 109.950,90.098 110.850,90.236 111.400 L 90.487 112.400 217.443 112.400 L 344.400 112.400 344.400 110.400 L 344.400 108.400 217.443 108.400 L 90.487 108.400 90.236 109.400 M55.600 126.400 L 55.600 128.400 71.000 128.400 L 86.400 128.400 86.400 126.400 L 86.400 124.400 71.000 124.400 L 55.600 124.400 55.600 126.400 M90.202 125.591 C 90.058 126.246,90.056 127.146,90.197 127.591 L 90.454 128.400 217.427 128.400 L 344.400 128.400 344.400 126.400 L 344.400 124.400 217.432 124.400 L 90.464 124.400 90.202 125.591 M55.600 143.000 L 55.600 144.800 71.000 144.800 L 86.400 144.800 86.400 143.000 L 86.400 141.200 71.000 141.200 L 55.600 141.200 55.600 143.000 M90.184 141.626 C 90.039 141.860,90.037 142.670,90.178 143.426 L 90.436 144.800 217.418 144.800 L 344.400 144.800 344.400 143.000 L 344.400 141.200 217.424 141.200 C 128.046 141.200,90.369 141.326,90.184 141.626 M55.600 159.000 L 55.600 160.800 71.000 160.800 L 86.400 160.800 86.400 159.000 L 86.400 157.200 71.000 157.200 L 55.600 157.200 55.600 159.000 M90.172 158.171 C 90.037 158.705,90.046 159.515,90.191 159.971 L 90.454 160.800 217.427 160.800 L 344.400 160.800 344.400 159.000 L 344.400 157.200 217.408 157.200 L 90.415 157.200 90.172 158.171 M55.600 175.400 L 55.600 177.600 71.000 177.600 L 86.400 177.600 86.400 175.400 L 86.400 173.200 71.000 173.200 L 55.600 173.200 55.600 175.400 M90.223 174.251 C 90.078 174.830,90.073 175.820,90.211 176.451 L 90.464 177.600 217.432 177.600 L 344.400 177.600 344.400 175.400 L 344.400 173.200 217.443 173.200 L 90.487 173.200 90.223 174.251 M55.600 191.600 L 55.600 193.600 71.000 193.600 L 86.400 193.600 86.400 191.600 L 86.400 189.600 71.000 189.600 L 55.600 189.600 55.600 191.600 M90.236 190.600 C 90.098 191.150,90.098 192.050,90.236 192.600 L 90.487 193.600 217.443 193.600 L 344.400 193.600 344.400 191.600 L 344.400 189.600 217.443 189.600 L 90.487 189.600 90.236 190.600 M55.600 207.600 L 55.600 209.600 71.000 209.600 L 86.400 209.600 86.400 207.600 L 86.400 205.600 71.000 205.600 L 55.600 205.600 55.600 207.600 M90.202 206.791 C 90.058 207.446,90.056 208.346,90.197 208.791 L 90.454 209.600 217.427 209.600 L 344.400 209.600 344.400 207.600 L 344.400 205.600 217.432 205.600 L 90.464 205.600 90.202 206.791 M55.600 224.000 L 55.600 226.400 71.000 226.400 L 86.400 226.400 86.400 224.000 L 86.400 221.600 71.000 221.600 L 55.600 221.600 55.600 224.000 M90.200 222.800 C 90.055 223.460,90.055 224.540,90.200 225.200 L 90.464 226.400 217.432 226.400 L 344.400 226.400 344.400 224.000 L 344.400 221.600 217.432 221.600 L 90.464 221.600 90.200 222.800 M55.600 240.400 L 55.600 242.400 71.000 242.400 L 86.400 242.400 86.400 240.400 L 86.400 238.400 71.000 238.400 L 55.600 238.400 55.600 240.400 M90.236 239.400 C 90.098 239.950,90.098 240.850,90.236 241.400 L 90.487 242.400 217.443 242.400 L 344.400 242.400 344.400 240.400 L 344.400 238.400 217.443 238.400 L 90.487 238.400 90.236 239.400 M55.600 256.400 L 55.600 258.400 71.000 258.400 L 86.400 258.400 86.400 256.400 L 86.400 254.400 71.000 254.400 L 55.600 254.400 55.600 256.400 M90.202 255.591 C 90.058 256.246,90.056 257.146,90.197 257.591 L 90.454 258.400 217.427 258.400 L 344.400 258.400 344.400 256.400 L 344.400 254.400 217.432 254.400 L 90.464 254.400 90.202 255.591 M55.600 273.000 L 55.600 274.800 71.000 274.800 L 86.400 274.800 86.400 273.000 L 86.400 271.200 71.000 271.200 L 55.600 271.200 55.600 273.000 M90.211 271.966 C 90.077 272.387,90.084 273.197,90.227 273.766 L 90.487 274.800 217.443 274.800 L 344.400 274.800 344.400 273.000 L 344.400 271.200 217.427 271.200 C 92.685 271.200,90.450 271.213,90.211 271.966 M55.600 289.000 L 55.600 290.800 71.000 290.800 L 86.400 290.800 86.400 289.000 L 86.400 287.200 71.000 287.200 L 55.600 287.200 55.600 289.000 M90.227 288.234 C 90.084 288.803,90.077 289.613,90.211 290.034 C 90.450 290.787,92.685 290.800,217.427 290.800 L 344.400 290.800 344.400 289.000 L 344.400 287.200 217.443 287.200 L 90.487 287.200 90.227 288.234 M55.600 305.400 L 55.600 307.600 71.000 307.600 L 86.400 307.600 86.400 305.400 L 86.400 303.200 71.000 303.200 L 55.600 303.200 55.600 305.400 M90.223 304.251 C 90.078 304.830,90.073 305.820,90.211 306.451 L 90.464 307.600 217.432 307.600 L 344.400 307.600 344.400 305.400 L 344.400 303.200 217.443 303.200 L 90.487 303.200 90.223 304.251 M55.600 321.600 L 55.600 323.600 71.000 323.600 L 86.400 323.600 86.400 321.600 L 86.400 319.600 71.000 319.600 L 55.600 319.600 55.600 321.600 M90.236 320.600 C 90.098 321.150,90.098 322.050,90.236 322.600 L 90.487 323.600 217.443 323.600 L 344.400 323.600 344.400 321.600 L 344.400 319.600 217.443 319.600 L 90.487 319.600 90.236 320.600 M55.600 337.600 L 55.600 339.600 71.000 339.600 L 86.400 339.600 86.400 337.600 L 86.400 335.600 71.000 335.600 L 55.600 335.600 55.600 337.600 M90.174 336.997 C 90.030 337.765,90.016 338.665,90.143 338.997 C 90.349 339.533,104.574 339.600,217.387 339.600 L 344.400 339.600 344.400 337.600 L 344.400 335.600 217.418 335.600 L 90.436 335.600 90.174 336.997 M55.600 354.400 L 55.600 356.400 71.000 356.400 L 86.400 356.400 86.400 354.400 L 86.400 352.400 71.000 352.400 L 55.600 352.400 55.600 354.400 M90.143 353.003 C 90.016 353.335,90.030 354.235,90.174 355.003 L 90.436 356.400 217.418 356.400 L 344.400 356.400 344.400 354.400 L 344.400 352.400 217.387 352.400 C 104.574 352.400,90.349 352.467,90.143 353.003 M55.600 370.400 L 55.600 372.400 71.000 372.400 L 86.400 372.400 86.400 370.400 L 86.400 368.400 71.000 368.400 L 55.600 368.400 55.600 370.400 M90.236 369.400 C 90.098 369.950,90.098 370.850,90.236 371.400 L 90.487 372.400 217.443 372.400 L 344.400 372.400 344.400 370.400 L 344.400 368.400 217.443 368.400 L 90.487 368.400 90.236 369.400 " stroke="none" fill="#0494dc" fill-rule="evenodd"></path><path id="path1" d="M54.600 9.587 C 53.492 10.054,52.400 11.452,52.400 12.405 C 52.400 12.842,52.220 13.200,52.000 13.200 C 51.734 13.200,51.600 75.733,51.600 200.000 C 51.600 324.267,51.734 386.800,52.000 386.800 C 52.220 386.800,52.400 387.055,52.400 387.368 C 52.400 388.867,53.801 390.380,55.400 390.606 C 59.059 391.123,346.128 390.617,346.302 390.093 C 346.395 389.814,346.725 389.332,347.036 389.021 C 347.346 388.711,347.600 388.084,347.600 387.629 C 347.600 387.173,347.780 386.800,348.000 386.800 C 348.266 386.800,348.400 324.267,348.400 200.000 C 348.400 75.733,348.266 13.200,348.000 13.200 C 347.780 13.200,347.600 12.945,347.600 12.632 C 347.600 11.417,346.208 9.662,345.061 9.432 C 343.206 9.061,55.485 9.215,54.600 9.587 M217.382 12.800 L 343.046 12.800 343.747 14.389 C 344.410 15.890,344.449 22.590,344.474 137.089 L 344.500 258.200 217.350 258.401 L 90.200 258.602 217.300 258.701 L 344.400 258.800 344.427 265.100 C 344.706 330.669,344.406 384.117,343.752 385.599 L 343.050 387.190 215.225 387.295 C 144.921 387.353,80.526 387.351,72.124 387.291 L 56.848 387.181 56.570 386.291 C 56.417 385.801,56.125 385.292,55.920 385.160 C 55.622 384.969,55.410 310.873,55.576 265.300 L 55.600 258.800 71.100 258.707 L 86.600 258.614 71.053 258.407 L 55.506 258.200 55.530 136.638 C 55.545 62.864,55.699 14.982,55.923 14.838 C 56.126 14.707,56.418 14.197,56.572 13.705 L 56.851 12.810 71.925 12.677 C 80.216 12.604,88.061 12.602,89.359 12.672 C 90.656 12.743,148.266 12.800,217.382 12.800 M69.600 32.768 C 69.600 32.971,69.060 33.255,68.400 33.400 C 67.575 33.581,67.200 33.903,67.200 34.432 C 67.200 34.854,67.020 35.200,66.800 35.200 C 66.077 35.200,66.354 39.718,67.132 40.600 C 71.238 45.260,77.737 40.675,75.188 34.917 C 74.421 33.185,69.600 31.331,69.600 32.768 M68.462 195.605 C 67.947 195.823,67.431 196.362,67.316 196.801 C 67.201 197.240,66.948 197.600,66.753 197.600 C 66.559 197.600,66.400 198.680,66.400 200.000 C 66.400 201.320,66.559 202.400,66.753 202.400 C 66.948 202.400,67.200 202.758,67.315 203.195 C 67.709 204.703,73.860 205.420,74.329 204.012 C 74.407 203.778,74.754 203.303,75.100 202.957 C 76.180 201.877,75.914 197.903,74.671 196.563 C 73.547 195.351,70.259 194.843,68.462 195.605 M68.496 358.146 C 67.999 358.392,67.492 358.909,67.369 359.296 C 67.247 359.683,66.978 360.000,66.773 360.000 C 66.568 360.000,66.400 361.080,66.400 362.400 C 66.400 363.733,66.578 364.800,66.800 364.800 C 67.020 364.800,67.200 365.146,67.200 365.568 C 67.200 366.097,67.575 366.419,68.400 366.600 C 69.060 366.745,69.600 367.029,69.600 367.232 C 69.600 367.434,70.320 367.600,71.200 367.600 C 72.080 367.600,72.800 367.440,72.800 367.243 C 72.800 367.047,73.205 366.784,73.700 366.659 C 74.889 366.358,75.744 364.323,75.689 361.924 C 75.610 358.430,71.879 356.471,68.496 358.146 " stroke="none" fill="#1b1b13" fill-rule="evenodd"></path><path id="path2" d="M86.613 12.877 C 86.514 13.165,86.471 97.550,86.517 200.400 L 86.600 387.400 88.400 387.400 L 90.200 387.400 90.309 380.029 C 90.378 375.389,90.267 372.507,90.009 372.249 C 89.483 371.723,89.476 368.924,90.000 368.600 C 90.535 368.269,90.535 356.131,90.000 355.800 C 89.780 355.664,89.600 354.944,89.600 354.200 C 89.600 353.456,89.780 352.736,90.000 352.600 C 90.536 352.269,90.536 339.731,90.000 339.400 C 89.480 339.079,89.480 336.521,90.000 336.200 C 90.535 335.869,90.535 323.731,90.000 323.400 C 89.780 323.264,89.600 322.454,89.600 321.600 C 89.600 320.746,89.780 319.936,90.000 319.800 C 90.535 319.469,90.535 307.331,90.000 307.000 C 89.480 306.679,89.480 304.121,90.000 303.800 C 90.536 303.469,90.536 290.931,90.000 290.600 C 89.480 290.279,89.480 287.721,90.000 287.400 C 90.535 287.069,90.535 274.931,90.000 274.600 C 89.480 274.279,89.480 271.721,90.000 271.400 C 90.536 271.069,90.536 258.531,90.000 258.200 C 89.471 257.873,89.486 255.474,90.020 254.940 C 90.471 254.489,90.306 243.542,89.803 240.547 C 89.626 239.493,89.684 238.796,89.962 238.623 C 90.532 238.271,90.568 226.151,90.000 225.800 C 89.480 225.479,89.480 222.921,90.000 222.600 C 90.536 222.269,90.536 209.731,90.000 209.400 C 89.471 209.073,89.486 206.674,90.020 206.140 C 90.471 205.689,90.306 194.742,89.803 191.747 C 89.626 190.693,89.684 189.996,89.962 189.823 C 90.565 189.451,90.565 177.349,89.962 176.977 C 89.684 176.804,89.626 176.107,89.803 175.053 C 90.306 172.058,90.471 161.111,90.020 160.660 C 89.477 160.117,89.477 157.883,90.020 157.340 C 90.473 156.887,90.305 145.954,89.798 142.900 C 89.608 141.755,89.660 141.200,89.958 141.200 C 90.570 141.200,90.574 128.555,89.962 128.177 C 89.681 128.003,89.627 127.316,89.812 126.253 C 89.969 125.344,90.098 121.810,90.098 118.400 C 90.098 114.990,89.969 111.456,89.812 110.547 C 89.627 109.484,89.681 108.797,89.962 108.623 C 90.532 108.271,90.568 96.151,90.000 95.800 C 89.780 95.664,89.600 94.944,89.600 94.200 C 89.600 93.456,89.780 92.736,90.000 92.600 C 90.239 92.452,90.400 89.804,90.400 86.000 C 90.400 82.196,90.239 79.548,90.000 79.400 C 89.471 79.073,89.486 76.674,90.020 76.140 C 90.471 75.689,90.306 64.742,89.803 61.747 C 89.626 60.693,89.684 59.996,89.962 59.823 C 90.574 59.445,90.570 46.800,89.958 46.800 C 89.658 46.800,89.611 46.253,89.812 45.100 C 89.974 44.165,90.128 36.470,90.154 28.000 L 90.200 12.600 88.496 12.477 C 87.360 12.395,86.733 12.528,86.613 12.877 " stroke="none" fill="#d32722" fill-rule="evenodd"></path><path id="path3" d="M89.843 43.833 C 89.500 44.725,89.540 46.800,89.900 46.798 C 90.065 46.796,90.222 45.986,90.250 44.998 C 90.303 43.066,90.224 42.840,89.843 43.833 M86.509 45.200 C 86.509 46.190,86.587 46.595,86.682 46.100 C 86.778 45.605,86.778 44.795,86.682 44.300 C 86.587 43.805,86.509 44.210,86.509 45.200 M55.301 45.400 C 55.305 46.280,55.387 46.593,55.483 46.095 C 55.579 45.598,55.575 44.878,55.475 44.495 C 55.375 44.113,55.296 44.520,55.301 45.400 M344.501 45.400 C 344.505 46.280,344.587 46.593,344.683 46.095 C 344.779 45.598,344.775 44.878,344.675 44.495 C 344.575 44.113,344.496 44.520,344.501 45.400 M89.867 59.867 C 89.499 60.235,89.542 62.490,89.929 63.099 C 90.109 63.383,90.246 62.736,90.246 61.599 C 90.246 60.500,90.221 59.600,90.190 59.600 C 90.159 59.600,90.013 59.720,89.867 59.867 M55.301 61.400 C 55.305 62.280,55.387 62.593,55.483 62.095 C 55.579 61.598,55.575 60.878,55.475 60.495 C 55.375 60.113,55.296 60.520,55.301 61.400 M86.509 61.600 C 86.509 62.590,86.587 62.995,86.682 62.500 C 86.778 62.005,86.778 61.195,86.682 60.700 C 86.587 60.205,86.509 60.610,86.509 61.600 M344.501 61.400 C 344.505 62.280,344.587 62.593,344.683 62.095 C 344.779 61.598,344.775 60.878,344.675 60.495 C 344.575 60.113,344.496 60.520,344.501 61.400 M86.514 77.800 C 86.517 78.900,86.595 79.303,86.687 78.695 C 86.779 78.086,86.777 77.186,86.682 76.695 C 86.587 76.203,86.511 76.700,86.514 77.800 M89.867 76.267 C 89.502 76.632,89.529 79.109,89.900 79.338 C 90.065 79.440,90.200 78.731,90.200 77.762 C 90.200 76.793,90.185 76.000,90.167 76.000 C 90.148 76.000,90.013 76.120,89.867 76.267 M55.301 77.800 C 55.305 78.680,55.387 78.993,55.483 78.495 C 55.579 77.998,55.575 77.278,55.475 76.895 C 55.375 76.513,55.296 76.920,55.301 77.800 M344.501 77.800 C 344.505 78.680,344.587 78.993,344.683 78.495 C 344.779 77.998,344.775 77.278,344.675 76.895 C 344.575 76.513,344.496 76.920,344.501 77.800 M86.509 94.000 C 86.509 94.990,86.587 95.395,86.682 94.900 C 86.778 94.405,86.778 93.595,86.682 93.100 C 86.587 92.605,86.509 93.010,86.509 94.000 M89.867 92.667 C 89.497 93.037,89.531 95.510,89.910 95.744 C 90.080 95.849,90.215 95.141,90.210 94.169 C 90.204 93.197,90.185 92.402,90.167 92.401 C 90.148 92.401,90.013 92.520,89.867 92.667 M55.301 94.200 C 55.305 95.080,55.387 95.393,55.483 94.895 C 55.579 94.398,55.575 93.678,55.475 93.295 C 55.375 92.913,55.296 93.320,55.301 94.200 M344.501 94.200 C 344.505 95.080,344.587 95.393,344.683 94.895 C 344.779 94.398,344.775 93.678,344.675 93.295 C 344.575 92.913,344.496 93.320,344.501 94.200 M89.867 108.667 C 89.499 109.035,89.542 111.290,89.929 111.899 C 90.109 112.183,90.246 111.536,90.246 110.399 C 90.246 109.300,90.221 108.400,90.190 108.400 C 90.159 108.400,90.013 108.520,89.867 108.667 M55.301 110.200 C 55.305 111.080,55.387 111.393,55.483 110.895 C 55.579 110.398,55.575 109.678,55.475 109.295 C 55.375 108.913,55.296 109.320,55.301 110.200 M86.509 110.400 C 86.509 111.390,86.587 111.795,86.682 111.300 C 86.778 110.805,86.778 109.995,86.682 109.500 C 86.587 109.005,86.509 109.410,86.509 110.400 M344.509 110.400 C 344.509 111.390,344.587 111.795,344.682 111.300 C 344.778 110.805,344.778 109.995,344.682 109.500 C 344.587 109.005,344.509 109.410,344.509 110.400 M89.843 125.033 C 89.503 125.918,89.540 127.916,89.900 128.138 C 90.065 128.240,90.213 127.440,90.229 126.361 C 90.261 124.236,90.212 124.069,89.843 125.033 M86.509 126.400 C 86.509 127.390,86.587 127.795,86.682 127.300 C 86.778 126.805,86.778 125.995,86.682 125.500 C 86.587 125.005,86.509 125.410,86.509 126.400 M55.301 126.600 C 55.305 127.480,55.387 127.793,55.483 127.295 C 55.579 126.798,55.575 126.078,55.475 125.695 C 55.375 125.313,55.296 125.720,55.301 126.600 M344.501 126.600 C 344.505 127.480,344.587 127.793,344.683 127.295 C 344.779 126.798,344.775 126.078,344.675 125.695 C 344.575 125.313,344.496 125.720,344.501 126.600 M86.509 142.800 C 86.509 143.790,86.587 144.195,86.682 143.700 C 86.778 143.205,86.778 142.395,86.682 141.900 C 86.587 141.405,86.509 141.810,86.509 142.800 M89.606 142.500 C 89.609 143.215,89.768 144.046,89.958 144.346 C 90.179 144.694,90.285 144.223,90.252 143.049 C 90.194 140.979,89.597 140.472,89.606 142.500 M344.509 142.800 C 344.509 143.790,344.587 144.195,344.682 143.700 C 344.778 143.205,344.778 142.395,344.682 141.900 C 344.587 141.405,344.509 141.810,344.509 142.800 M55.293 142.800 C 55.293 143.570,55.375 143.885,55.476 143.500 C 55.576 143.115,55.576 142.485,55.476 142.100 C 55.375 141.715,55.293 142.030,55.293 142.800 M86.514 159.000 C 86.517 160.100,86.595 160.503,86.687 159.895 C 86.779 159.286,86.777 158.386,86.682 157.895 C 86.587 157.403,86.511 157.900,86.514 159.000 M89.867 157.467 C 89.502 157.832,89.529 160.309,89.900 160.538 C 90.065 160.640,90.200 159.931,90.200 158.962 C 90.200 157.993,90.185 157.200,90.167 157.200 C 90.148 157.200,90.013 157.320,89.867 157.467 M55.301 159.000 C 55.305 159.880,55.387 160.193,55.483 159.695 C 55.579 159.198,55.575 158.478,55.475 158.095 C 55.375 157.713,55.296 158.120,55.301 159.000 M344.509 159.200 C 344.509 160.190,344.587 160.595,344.682 160.100 C 344.778 159.605,344.778 158.795,344.682 158.300 C 344.587 157.805,344.509 158.210,344.509 159.200 M89.843 173.833 C 89.503 174.718,89.540 176.716,89.900 176.938 C 90.065 177.040,90.213 176.240,90.229 175.161 C 90.261 173.036,90.212 172.869,89.843 173.833 M86.509 175.200 C 86.509 176.190,86.587 176.595,86.682 176.100 C 86.778 175.605,86.778 174.795,86.682 174.300 C 86.587 173.805,86.509 174.210,86.509 175.200 M55.301 175.400 C 55.305 176.280,55.387 176.593,55.483 176.095 C 55.579 175.598,55.575 174.878,55.475 174.495 C 55.375 174.113,55.296 174.520,55.301 175.400 M344.501 175.400 C 344.505 176.280,344.587 176.593,344.683 176.095 C 344.779 175.598,344.775 174.878,344.675 174.495 C 344.575 174.113,344.496 174.520,344.501 175.400 M89.867 189.867 C 89.499 190.235,89.542 192.490,89.929 193.099 C 90.109 193.383,90.246 192.736,90.246 191.599 C 90.246 190.500,90.221 189.600,90.190 189.600 C 90.159 189.600,90.013 189.720,89.867 189.867 M55.301 191.400 C 55.305 192.280,55.387 192.593,55.483 192.095 C 55.579 191.598,55.575 190.878,55.475 190.495 C 55.375 190.113,55.296 190.520,55.301 191.400 M86.509 191.600 C 86.509 192.590,86.587 192.995,86.682 192.500 C 86.778 192.005,86.778 191.195,86.682 190.700 C 86.587 190.205,86.509 190.610,86.509 191.600 M344.509 191.600 C 344.509 192.590,344.587 192.995,344.682 192.500 C 344.778 192.005,344.778 191.195,344.682 190.700 C 344.587 190.205,344.509 190.610,344.509 191.600 M86.514 207.800 C 86.517 208.900,86.595 209.303,86.687 208.695 C 86.779 208.086,86.777 207.186,86.682 206.695 C 86.587 206.203,86.511 206.700,86.514 207.800 M89.867 206.267 C 89.502 206.632,89.529 209.109,89.900 209.338 C 90.065 209.440,90.200 208.731,90.200 207.762 C 90.200 206.793,90.185 206.000,90.167 206.000 C 90.148 206.000,90.013 206.120,89.867 206.267 M55.301 207.800 C 55.305 208.680,55.387 208.993,55.483 208.495 C 55.579 207.998,55.575 207.278,55.475 206.895 C 55.375 206.513,55.296 206.920,55.301 207.800 M344.501 207.800 C 344.505 208.680,344.587 208.993,344.683 208.495 C 344.779 207.998,344.775 207.278,344.675 206.895 C 344.575 206.513,344.496 206.920,344.501 207.800 M86.509 224.000 C 86.509 224.990,86.587 225.395,86.682 224.900 C 86.778 224.405,86.778 223.595,86.682 223.100 C 86.587 222.605,86.509 223.010,86.509 224.000 M89.867 222.667 C 89.497 223.037,89.531 225.510,89.910 225.744 C 90.080 225.849,90.215 225.141,90.210 224.169 C 90.204 223.197,90.185 222.402,90.167 222.401 C 90.148 222.401,90.013 222.520,89.867 222.667 M55.301 224.200 C 55.305 225.080,55.387 225.393,55.483 224.895 C 55.579 224.398,55.575 223.678,55.475 223.295 C 55.375 222.913,55.296 223.320,55.301 224.200 M344.501 224.200 C 344.505 225.080,344.587 225.393,344.683 224.895 C 344.779 224.398,344.775 223.678,344.675 223.295 C 344.575 222.913,344.496 223.320,344.501 224.200 M89.867 238.667 C 89.499 239.035,89.542 241.290,89.929 241.899 C 90.109 242.183,90.246 241.536,90.246 240.399 C 90.246 239.300,90.221 238.400,90.190 238.400 C 90.159 238.400,90.013 238.520,89.867 238.667 M55.301 240.200 C 55.305 241.080,55.387 241.393,55.483 240.895 C 55.579 240.398,55.575 239.678,55.475 239.295 C 55.375 238.913,55.296 239.320,55.301 240.200 M86.509 240.400 C 86.509 241.390,86.587 241.795,86.682 241.300 C 86.778 240.805,86.778 239.995,86.682 239.500 C 86.587 239.005,86.509 239.410,86.509 240.400 M344.509 240.400 C 344.509 241.390,344.587 241.795,344.682 241.300 C 344.778 240.805,344.778 239.995,344.682 239.500 C 344.587 239.005,344.509 239.410,344.509 240.400 M89.867 255.067 C 89.502 255.432,89.529 257.909,89.900 258.138 C 90.065 258.240,90.200 257.531,90.200 256.562 C 90.200 255.593,90.185 254.800,90.167 254.800 C 90.148 254.800,90.013 254.920,89.867 255.067 M55.301 256.600 C 55.305 257.480,55.387 257.793,55.483 257.295 C 55.579 256.798,55.575 256.078,55.475 255.695 C 55.375 255.313,55.296 255.720,55.301 256.600 M86.501 256.600 C 86.505 257.480,86.587 257.793,86.683 257.295 C 86.779 256.798,86.775 256.078,86.675 255.695 C 86.575 255.313,86.496 255.720,86.501 256.600 M344.501 256.600 C 344.505 257.480,344.587 257.793,344.683 257.295 C 344.779 256.798,344.775 256.078,344.675 255.695 C 344.575 255.313,344.496 255.720,344.501 256.600 M86.509 272.800 C 86.509 273.790,86.587 274.195,86.682 273.700 C 86.778 273.205,86.778 272.395,86.682 271.900 C 86.587 271.405,86.509 271.810,86.509 272.800 M89.867 271.467 C 89.482 271.852,89.538 274.315,89.938 274.562 C 90.124 274.677,90.259 273.967,90.238 272.985 C 90.217 272.004,90.185 271.200,90.167 271.200 C 90.148 271.200,90.013 271.320,89.867 271.467 M344.509 272.800 C 344.509 273.790,344.587 274.195,344.682 273.700 C 344.778 273.205,344.778 272.395,344.682 271.900 C 344.587 271.405,344.509 271.810,344.509 272.800 M55.293 272.800 C 55.293 273.570,55.375 273.885,55.476 273.500 C 55.576 273.115,55.576 272.485,55.476 272.100 C 55.375 271.715,55.293 272.030,55.293 272.800 M86.514 289.000 C 86.517 290.100,86.595 290.503,86.687 289.895 C 86.779 289.286,86.777 288.386,86.682 287.895 C 86.587 287.403,86.511 287.900,86.514 289.000 M89.867 287.467 C 89.502 287.832,89.529 290.309,89.900 290.538 C 90.065 290.640,90.217 289.931,90.238 288.962 C 90.279 287.080,90.274 287.059,89.867 287.467 M55.301 289.000 C 55.305 289.880,55.387 290.193,55.483 289.695 C 55.579 289.198,55.575 288.478,55.475 288.095 C 55.375 287.713,55.296 288.120,55.301 289.000 M344.509 289.200 C 344.509 290.190,344.587 290.595,344.682 290.100 C 344.778 289.605,344.778 288.795,344.682 288.300 C 344.587 287.805,344.509 288.210,344.509 289.200 M89.867 303.867 C 89.502 304.232,89.529 306.709,89.900 306.938 C 90.065 307.040,90.200 306.331,90.200 305.362 C 90.200 304.393,90.185 303.600,90.167 303.600 C 90.148 303.600,90.013 303.720,89.867 303.867 M55.301 305.400 C 55.305 306.280,55.387 306.593,55.483 306.095 C 55.579 305.598,55.575 304.878,55.475 304.495 C 55.375 304.113,55.296 304.520,55.301 305.400 M86.501 305.400 C 86.505 306.280,86.587 306.593,86.683 306.095 C 86.779 305.598,86.775 304.878,86.675 304.495 C 86.575 304.113,86.496 304.520,86.501 305.400 M344.501 305.400 C 344.505 306.280,344.587 306.593,344.683 306.095 C 344.779 305.598,344.775 304.878,344.675 304.495 C 344.575 304.113,344.496 304.520,344.501 305.400 M89.867 319.867 C 89.488 320.245,89.535 323.112,89.923 323.352 C 90.101 323.462,90.246 322.663,90.246 321.576 C 90.246 320.489,90.221 319.600,90.190 319.600 C 90.159 319.600,90.013 319.720,89.867 319.867 M55.301 321.400 C 55.305 322.280,55.387 322.593,55.483 322.095 C 55.579 321.598,55.575 320.878,55.475 320.495 C 55.375 320.113,55.296 320.520,55.301 321.400 M86.509 321.600 C 86.509 322.590,86.587 322.995,86.682 322.500 C 86.778 322.005,86.778 321.195,86.682 320.700 C 86.587 320.205,86.509 320.610,86.509 321.600 M344.509 321.600 C 344.509 322.590,344.587 322.995,344.682 322.500 C 344.778 322.005,344.778 321.195,344.682 320.700 C 344.587 320.205,344.509 320.610,344.509 321.600 M89.867 336.267 C 89.502 336.632,89.529 339.109,89.900 339.336 C 90.065 339.438,90.205 338.728,90.211 337.760 C 90.216 336.792,90.201 336.000,90.177 336.000 C 90.153 336.000,90.013 336.120,89.867 336.267 M55.301 337.800 C 55.305 338.680,55.387 338.993,55.483 338.495 C 55.579 337.998,55.575 337.278,55.475 336.895 C 55.375 336.513,55.296 336.920,55.301 337.800 M86.509 338.000 C 86.509 338.990,86.587 339.395,86.682 338.900 C 86.778 338.405,86.778 337.595,86.682 337.100 C 86.587 336.605,86.509 337.010,86.509 338.000 M344.501 337.800 C 344.505 338.680,344.587 338.993,344.683 338.495 C 344.779 337.998,344.775 337.278,344.675 336.895 C 344.575 336.513,344.496 336.920,344.501 337.800 M86.509 354.000 C 86.509 354.990,86.587 355.395,86.682 354.900 C 86.778 354.405,86.778 353.595,86.682 353.100 C 86.587 352.605,86.509 353.010,86.509 354.000 M89.867 352.667 C 89.497 353.037,89.531 355.510,89.910 355.744 C 90.080 355.849,90.215 355.141,90.210 354.169 C 90.204 353.197,90.185 352.402,90.167 352.401 C 90.148 352.401,90.013 352.520,89.867 352.667 M55.301 354.200 C 55.305 355.080,55.387 355.393,55.483 354.895 C 55.579 354.398,55.575 353.678,55.475 353.295 C 55.375 352.913,55.296 353.320,55.301 354.200 M344.501 354.200 C 344.505 355.080,344.587 355.393,344.683 354.895 C 344.779 354.398,344.775 353.678,344.675 353.295 C 344.575 352.913,344.496 353.320,344.501 354.200 M89.867 368.667 C 89.488 369.045,89.535 371.912,89.923 372.152 C 90.101 372.262,90.246 371.463,90.246 370.376 C 90.246 369.289,90.221 368.400,90.190 368.400 C 90.159 368.400,90.013 368.520,89.867 368.667 M55.301 370.200 C 55.305 371.080,55.387 371.393,55.483 370.895 C 55.579 370.398,55.575 369.678,55.475 369.295 C 55.375 368.913,55.296 369.320,55.301 370.200 M86.509 370.400 C 86.509 371.390,86.587 371.795,86.682 371.300 C 86.778 370.805,86.778 369.995,86.682 369.500 C 86.587 369.005,86.509 369.410,86.509 370.400 M344.509 370.400 C 344.509 371.390,344.587 371.795,344.682 371.300 C 344.778 370.805,344.778 369.995,344.682 369.500 C 344.587 369.005,344.509 369.410,344.509 370.400 " stroke="none" fill="#3898a8" fill-rule="evenodd"></path><path id="path4" d="M89.843 43.833 C 89.500 44.725,89.540 46.800,89.900 46.798 C 90.065 46.796,90.222 45.986,90.250 44.998 C 90.303 43.066,90.224 42.840,89.843 43.833 M86.509 45.200 C 86.509 46.190,86.587 46.595,86.682 46.100 C 86.778 45.605,86.778 44.795,86.682 44.300 C 86.587 43.805,86.509 44.210,86.509 45.200 M55.301 45.400 C 55.305 46.280,55.387 46.593,55.483 46.095 C 55.579 45.598,55.575 44.878,55.475 44.495 C 55.375 44.113,55.296 44.520,55.301 45.400 M344.501 45.400 C 344.505 46.280,344.587 46.593,344.683 46.095 C 344.779 45.598,344.775 44.878,344.675 44.495 C 344.575 44.113,344.496 44.520,344.501 45.400 M89.867 59.867 C 89.499 60.235,89.542 62.490,89.929 63.099 C 90.109 63.383,90.246 62.736,90.246 61.599 C 90.246 60.500,90.221 59.600,90.190 59.600 C 90.159 59.600,90.013 59.720,89.867 59.867 M55.301 61.400 C 55.305 62.280,55.387 62.593,55.483 62.095 C 55.579 61.598,55.575 60.878,55.475 60.495 C 55.375 60.113,55.296 60.520,55.301 61.400 M86.509 61.600 C 86.509 62.590,86.587 62.995,86.682 62.500 C 86.778 62.005,86.778 61.195,86.682 60.700 C 86.587 60.205,86.509 60.610,86.509 61.600 M344.501 61.400 C 344.505 62.280,344.587 62.593,344.683 62.095 C 344.779 61.598,344.775 60.878,344.675 60.495 C 344.575 60.113,344.496 60.520,344.501 61.400 M86.514 77.800 C 86.517 78.900,86.595 79.303,86.687 78.695 C 86.779 78.086,86.777 77.186,86.682 76.695 C 86.587 76.203,86.511 76.700,86.514 77.800 M89.867 76.267 C 89.502 76.632,89.529 79.109,89.900 79.338 C 90.065 79.440,90.200 78.731,90.200 77.762 C 90.200 76.793,90.185 76.000,90.167 76.000 C 90.148 76.000,90.013 76.120,89.867 76.267 M55.301 77.800 C 55.305 78.680,55.387 78.993,55.483 78.495 C 55.579 77.998,55.575 77.278,55.475 76.895 C 55.375 76.513,55.296 76.920,55.301 77.800 M344.501 77.800 C 344.505 78.680,344.587 78.993,344.683 78.495 C 344.779 77.998,344.775 77.278,344.675 76.895 C 344.575 76.513,344.496 76.920,344.501 77.800 M86.509 94.000 C 86.509 94.990,86.587 95.395,86.682 94.900 C 86.778 94.405,86.778 93.595,86.682 93.100 C 86.587 92.605,86.509 93.010,86.509 94.000 M89.867 92.667 C 89.497 93.037,89.531 95.510,89.910 95.744 C 90.080 95.849,90.215 95.141,90.210 94.169 C 90.204 93.197,90.185 92.402,90.167 92.401 C 90.148 92.401,90.013 92.520,89.867 92.667 M55.301 94.200 C 55.305 95.080,55.387 95.393,55.483 94.895 C 55.579 94.398,55.575 93.678,55.475 93.295 C 55.375 92.913,55.296 93.320,55.301 94.200 M344.501 94.200 C 344.505 95.080,344.587 95.393,344.683 94.895 C 344.779 94.398,344.775 93.678,344.675 93.295 C 344.575 92.913,344.496 93.320,344.501 94.200 M89.867 108.667 C 89.499 109.035,89.542 111.290,89.929 111.899 C 90.109 112.183,90.246 111.536,90.246 110.399 C 90.246 109.300,90.221 108.400,90.190 108.400 C 90.159 108.400,90.013 108.520,89.867 108.667 M55.301 110.200 C 55.305 111.080,55.387 111.393,55.483 110.895 C 55.579 110.398,55.575 109.678,55.475 109.295 C 55.375 108.913,55.296 109.320,55.301 110.200 M86.509 110.400 C 86.509 111.390,86.587 111.795,86.682 111.300 C 86.778 110.805,86.778 109.995,86.682 109.500 C 86.587 109.005,86.509 109.410,86.509 110.400 M344.509 110.400 C 344.509 111.390,344.587 111.795,344.682 111.300 C 344.778 110.805,344.778 109.995,344.682 109.500 C 344.587 109.005,344.509 109.410,344.509 110.400 M89.843 125.033 C 89.503 125.918,89.540 127.916,89.900 128.138 C 90.065 128.240,90.213 127.440,90.229 126.361 C 90.261 124.236,90.212 124.069,89.843 125.033 M86.509 126.400 C 86.509 127.390,86.587 127.795,86.682 127.300 C 86.778 126.805,86.778 125.995,86.682 125.500 C 86.587 125.005,86.509 125.410,86.509 126.400 M55.301 126.600 C 55.305 127.480,55.387 127.793,55.483 127.295 C 55.579 126.798,55.575 126.078,55.475 125.695 C 55.375 125.313,55.296 125.720,55.301 126.600 M344.501 126.600 C 344.505 127.480,344.587 127.793,344.683 127.295 C 344.779 126.798,344.775 126.078,344.675 125.695 C 344.575 125.313,344.496 125.720,344.501 126.600 M86.509 142.800 C 86.509 143.790,86.587 144.195,86.682 143.700 C 86.778 143.205,86.778 142.395,86.682 141.900 C 86.587 141.405,86.509 141.810,86.509 142.800 M89.606 142.500 C 89.609 143.215,89.768 144.046,89.958 144.346 C 90.179 144.694,90.285 144.223,90.252 143.049 C 90.194 140.979,89.597 140.472,89.606 142.500 M344.509 142.800 C 344.509 143.790,344.587 144.195,344.682 143.700 C 344.778 143.205,344.778 142.395,344.682 141.900 C 344.587 141.405,344.509 141.810,344.509 142.800 M55.293 142.800 C 55.293 143.570,55.375 143.885,55.476 143.500 C 55.576 143.115,55.576 142.485,55.476 142.100 C 55.375 141.715,55.293 142.030,55.293 142.800 M86.514 159.000 C 86.517 160.100,86.595 160.503,86.687 159.895 C 86.779 159.286,86.777 158.386,86.682 157.895 C 86.587 157.403,86.511 157.900,86.514 159.000 M89.867 157.467 C 89.502 157.832,89.529 160.309,89.900 160.538 C 90.065 160.640,90.200 159.931,90.200 158.962 C 90.200 157.993,90.185 157.200,90.167 157.200 C 90.148 157.200,90.013 157.320,89.867 157.467 M55.301 159.000 C 55.305 159.880,55.387 160.193,55.483 159.695 C 55.579 159.198,55.575 158.478,55.475 158.095 C 55.375 157.713,55.296 158.120,55.301 159.000 M344.509 159.200 C 344.509 160.190,344.587 160.595,344.682 160.100 C 344.778 159.605,344.778 158.795,344.682 158.300 C 344.587 157.805,344.509 158.210,344.509 159.200 M89.843 173.833 C 89.503 174.718,89.540 176.716,89.900 176.938 C 90.065 177.040,90.213 176.240,90.229 175.161 C 90.261 173.036,90.212 172.869,89.843 173.833 M86.509 175.200 C 86.509 176.190,86.587 176.595,86.682 176.100 C 86.778 175.605,86.778 174.795,86.682 174.300 C 86.587 173.805,86.509 174.210,86.509 175.200 M55.301 175.400 C 55.305 176.280,55.387 176.593,55.483 176.095 C 55.579 175.598,55.575 174.878,55.475 174.495 C 55.375 174.113,55.296 174.520,55.301 175.400 M344.501 175.400 C 344.505 176.280,344.587 176.593,344.683 176.095 C 344.779 175.598,344.775 174.878,344.675 174.495 C 344.575 174.113,344.496 174.520,344.501 175.400 M89.867 189.867 C 89.499 190.235,89.542 192.490,89.929 193.099 C 90.109 193.383,90.246 192.736,90.246 191.599 C 90.246 190.500,90.221 189.600,90.190 189.600 C 90.159 189.600,90.013 189.720,89.867 189.867 M55.301 191.400 C 55.305 192.280,55.387 192.593,55.483 192.095 C 55.579 191.598,55.575 190.878,55.475 190.495 C 55.375 190.113,55.296 190.520,55.301 191.400 M86.509 191.600 C 86.509 192.590,86.587 192.995,86.682 192.500 C 86.778 192.005,86.778 191.195,86.682 190.700 C 86.587 190.205,86.509 190.610,86.509 191.600 M344.509 191.600 C 344.509 192.590,344.587 192.995,344.682 192.500 C 344.778 192.005,344.778 191.195,344.682 190.700 C 344.587 190.205,344.509 190.610,344.509 191.600 M86.514 207.800 C 86.517 208.900,86.595 209.303,86.687 208.695 C 86.779 208.086,86.777 207.186,86.682 206.695 C 86.587 206.203,86.511 206.700,86.514 207.800 M89.867 206.267 C 89.502 206.632,89.529 209.109,89.900 209.338 C 90.065 209.440,90.200 208.731,90.200 207.762 C 90.200 206.793,90.185 206.000,90.167 206.000 C 90.148 206.000,90.013 206.120,89.867 206.267 M55.301 207.800 C 55.305 208.680,55.387 208.993,55.483 208.495 C 55.579 207.998,55.575 207.278,55.475 206.895 C 55.375 206.513,55.296 206.920,55.301 207.800 M344.501 207.800 C 344.505 208.680,344.587 208.993,344.683 208.495 C 344.779 207.998,344.775 207.278,344.675 206.895 C 344.575 206.513,344.496 206.920,344.501 207.800 M86.509 224.000 C 86.509 224.990,86.587 225.395,86.682 224.900 C 86.778 224.405,86.778 223.595,86.682 223.100 C 86.587 222.605,86.509 223.010,86.509 224.000 M89.867 222.667 C 89.497 223.037,89.531 225.510,89.910 225.744 C 90.080 225.849,90.215 225.141,90.210 224.169 C 90.204 223.197,90.185 222.402,90.167 222.401 C 90.148 222.401,90.013 222.520,89.867 222.667 M55.301 224.200 C 55.305 225.080,55.387 225.393,55.483 224.895 C 55.579 224.398,55.575 223.678,55.475 223.295 C 55.375 222.913,55.296 223.320,55.301 224.200 M344.501 224.200 C 344.505 225.080,344.587 225.393,344.683 224.895 C 344.779 224.398,344.775 223.678,344.675 223.295 C 344.575 222.913,344.496 223.320,344.501 224.200 M89.867 238.667 C 89.499 239.035,89.542 241.290,89.929 241.899 C 90.109 242.183,90.246 241.536,90.246 240.399 C 90.246 239.300,90.221 238.400,90.190 238.400 C 90.159 238.400,90.013 238.520,89.867 238.667 M55.301 240.200 C 55.305 241.080,55.387 241.393,55.483 240.895 C 55.579 240.398,55.575 239.678,55.475 239.295 C 55.375 238.913,55.296 239.320,55.301 240.200 M86.509 240.400 C 86.509 241.390,86.587 241.795,86.682 241.300 C 86.778 240.805,86.778 239.995,86.682 239.500 C 86.587 239.005,86.509 239.410,86.509 240.400 M344.509 240.400 C 344.509 241.390,344.587 241.795,344.682 241.300 C 344.778 240.805,344.778 239.995,344.682 239.500 C 344.587 239.005,344.509 239.410,344.509 240.400 M89.867 255.067 C 89.502 255.432,89.529 257.909,89.900 258.138 C 90.065 258.240,90.200 257.531,90.200 256.562 C 90.200 255.593,90.185 254.800,90.167 254.800 C 90.148 254.800,90.013 254.920,89.867 255.067 M55.301 256.600 C 55.305 257.480,55.387 257.793,55.483 257.295 C 55.579 256.798,55.575 256.078,55.475 255.695 C 55.375 255.313,55.296 255.720,55.301 256.600 M86.501 256.600 C 86.505 257.480,86.587 257.793,86.683 257.295 C 86.779 256.798,86.775 256.078,86.675 255.695 C 86.575 255.313,86.496 255.720,86.501 256.600 M344.501 256.600 C 344.505 257.480,344.587 257.793,344.683 257.295 C 344.779 256.798,344.775 256.078,344.675 255.695 C 344.575 255.313,344.496 255.720,344.501 256.600 M86.509 272.800 C 86.509 273.790,86.587 274.195,86.682 273.700 C 86.778 273.205,86.778 272.395,86.682 271.900 C 86.587 271.405,86.509 271.810,86.509 272.800 M89.867 271.467 C 89.482 271.852,89.538 274.315,89.938 274.562 C 90.124 274.677,90.259 273.967,90.238 272.985 C 90.217 272.004,90.185 271.200,90.167 271.200 C 90.148 271.200,90.013 271.320,89.867 271.467 M344.509 272.800 C 344.509 273.790,344.587 274.195,344.682 273.700 C 344.778 273.205,344.778 272.395,344.682 271.900 C 344.587 271.405,344.509 271.810,344.509 272.800 M55.293 272.800 C 55.293 273.570,55.375 273.885,55.476 273.500 C 55.576 273.115,55.576 272.485,55.476 272.100 C 55.375 271.715,55.293 272.030,55.293 272.800 M86.514 289.000 C 86.517 290.100,86.595 290.503,86.687 289.895 C 86.779 289.286,86.777 288.386,86.682 287.895 C 86.587 287.403,86.511 287.900,86.514 289.000 M89.867 287.467 C 89.502 287.832,89.529 290.309,89.900 290.538 C 90.065 290.640,90.217 289.931,90.238 288.962 C 90.279 287.080,90.274 287.059,89.867 287.467 M55.301 289.000 C 55.305 289.880,55.387 290.193,55.483 289.695 C 55.579 289.198,55.575 288.478,55.475 288.095 C 55.375 287.713,55.296 288.120,55.301 289.000 M344.509 289.200 C 344.509 290.190,344.587 290.595,344.682 290.100 C 344.778 289.605,344.778 288.795,344.682 288.300 C 344.587 287.805,344.509 288.210,344.509 289.200 M89.867 303.867 C 89.502 304.232,89.529 306.709,89.900 306.938 C 90.065 307.040,90.200 306.331,90.200 305.362 C 90.200 304.393,90.185 303.600,90.167 303.600 C 90.148 303.600,90.013 303.720,89.867 303.867 M55.301 305.400 C 55.305 306.280,55.387 306.593,55.483 306.095 C 55.579 305.598,55.575 304.878,55.475 304.495 C 55.375 304.113,55.296 304.520,55.301 305.400 M86.501 305.400 C 86.505 306.280,86.587 306.593,86.683 306.095 C 86.779 305.598,86.775 304.878,86.675 304.495 C 86.575 304.113,86.496 304.520,86.501 305.400 M344.501 305.400 C 344.505 306.280,344.587 306.593,344.683 306.095 C 344.779 305.598,344.775 304.878,344.675 304.495 C 344.575 304.113,344.496 304.520,344.501 305.400 M89.867 319.867 C 89.488 320.245,89.535 323.112,89.923 323.352 C 90.101 323.462,90.246 322.663,90.246 321.576 C 90.246 320.489,90.221 319.600,90.190 319.600 C 90.159 319.600,90.013 319.720,89.867 319.867 M55.301 321.400 C 55.305 322.280,55.387 322.593,55.483 322.095 C 55.579 321.598,55.575 320.878,55.475 320.495 C 55.375 320.113,55.296 320.520,55.301 321.400 M86.509 321.600 C 86.509 322.590,86.587 322.995,86.682 322.500 C 86.778 322.005,86.778 321.195,86.682 320.700 C 86.587 320.205,86.509 320.610,86.509 321.600 M344.509 321.600 C 344.509 322.590,344.587 322.995,344.682 322.500 C 344.778 322.005,344.778 321.195,344.682 320.700 C 344.587 320.205,344.509 320.610,344.509 321.600 M89.867 336.267 C 89.502 336.632,89.529 339.109,89.900 339.336 C 90.065 339.438,90.205 338.728,90.211 337.760 C 90.216 336.792,90.201 336.000,90.177 336.000 C 90.153 336.000,90.013 336.120,89.867 336.267 M55.301 337.800 C 55.305 338.680,55.387 338.993,55.483 338.495 C 55.579 337.998,55.575 337.278,55.475 336.895 C 55.375 336.513,55.296 336.920,55.301 337.800 M86.509 338.000 C 86.509 338.990,86.587 339.395,86.682 338.900 C 86.778 338.405,86.778 337.595,86.682 337.100 C 86.587 336.605,86.509 337.010,86.509 338.000 M344.501 337.800 C 344.505 338.680,344.587 338.993,344.683 338.495 C 344.779 337.998,344.775 337.278,344.675 336.895 C 344.575 336.513,344.496 336.920,344.501 337.800 M86.509 354.000 C 86.509 354.990,86.587 355.395,86.682 354.900 C 86.778 354.405,86.778 353.595,86.682 353.100 C 86.587 352.605,86.509 353.010,86.509 354.000 M89.867 352.667 C 89.497 353.037,89.531 355.510,89.910 355.744 C 90.080 355.849,90.215 355.141,90.210 354.169 C 90.204 353.197,90.185 352.402,90.167 352.401 C 90.148 352.401,90.013 352.520,89.867 352.667 M55.301 354.200 C 55.305 355.080,55.387 355.393,55.483 354.895 C 55.579 354.398,55.575 353.678,55.475 353.295 C 55.375 352.913,55.296 353.320,55.301 354.200 M344.501 354.200 C 344.505 355.080,344.587 355.393,344.683 354.895 C 344.779 354.398,344.775 353.678,344.675 353.295 C 344.575 352.913,344.496 353.320,344.501 354.200 M89.867 368.667 C 89.488 369.045,89.535 371.912,89.923 372.152 C 90.101 372.262,90.246 371.463,90.246 370.376 C 90.246 369.289,90.221 368.400,90.190 368.400 C 90.159 368.400,90.013 368.520,89.867 368.667 M55.301 370.200 C 55.305 371.080,55.387 371.393,55.483 370.895 C 55.579 370.398,55.575 369.678,55.475 369.295 C 55.375 368.913,55.296 369.320,55.301 370.200 M86.509 370.400 C 86.509 371.390,86.587 371.795,86.682 371.300 C 86.778 370.805,86.778 369.995,86.682 369.500 C 86.587 369.005,86.509 369.410,86.509 370.400 M344.509 370.400 C 344.509 371.390,344.587 371.795,344.682 371.300 C 344.778 370.805,344.778 369.995,344.682 369.500 C 344.587 369.005,344.509 369.410,344.509 370.400 " stroke="none" fill="#3898a8" fill-rule="evenodd"></path></g></svg>