<svg id="svg" version="1.1" xmlns="http://www.w3.org/2000/svg" xmlns:xlink="http://www.w3.org/1999/xlink" width="400" height="400" viewBox="0, 0, 400,400"><g id="svgg"><path id="path0" d="M133.210 20.882 C 127.222 61.667,145.463 141.057,181.544 231.241 C 181.766 231.797,182.368 231.672,186.133 230.284 L 190.466 228.686 188.533 227.733 C 179.415 223.241,180.011 209.459,189.518 204.961 C 199.742 200.125,210.761 211.018,206.087 221.341 C 205.307 223.066,205.286 223.252,205.904 223.006 C 206.287 222.855,208.075 222.192,209.879 221.535 C 213.125 220.351,213.153 220.329,212.751 219.270 C 205.793 200.945,134.177 18.056,133.812 17.682 C 133.749 17.617,133.478 19.057,133.210 20.882 M249.068 18.400 C 248.934 18.730,248.021 21.611,247.039 24.802 C 246.057 27.993,235.146 61.002,222.792 98.156 L 200.331 165.707 201.532 168.354 C 202.192 169.809,206.369 180.360,210.815 191.800 C 215.260 203.240,219.024 212.836,219.179 213.125 C 219.336 213.419,220.714 209.549,222.312 204.325 C 246.397 125.588,256.300 65.924,251.379 29.200 C 250.583 23.259,249.379 17.633,249.068 18.400 M198.434 212.234 C 201.984 215.802,202.675 215.975,201.137 212.910 C 200.051 210.744,198.759 209.687,196.606 209.201 L 195.073 208.856 198.434 212.234 M187.406 219.240 C 188.115 221.517,189.620 222.917,192.136 223.639 C 193.480 224.024,190.917 221.033,188.254 219.108 L 187.108 218.280 187.406 219.240 " stroke="none" fill="#dcdede" fill-rule="evenodd"></path><path id="path1" d="M246.860 3.210 C 245.505 4.339,234.682 35.933,201.950 134.315 L 195.790 152.831 190.835 140.115 C 167.404 79.986,139.060 7.915,137.578 4.700 C 137.076 3.610,137.036 3.600,133.182 3.600 L 129.293 3.600 128.279 6.334 C 115.369 41.165,129.619 117.719,167.789 218.590 C 170.582 225.969,171.235 228.097,171.104 229.390 C 170.963 230.787,171.135 231.222,172.403 232.680 C 180.865 242.402,170.663 279.155,154.931 295.621 C 150.199 300.574,149.670 300.676,135.383 299.387 C 104.345 296.588,89.154 305.089,81.827 329.357 C 72.207 361.218,85.838 387.042,118.200 398.268 L 122.600 399.794 135.101 399.918 L 147.603 400.042 150.301 398.622 C 166.779 389.950,190.176 358.197,188.033 347.415 C 186.832 341.376,189.845 326.130,196.650 303.800 C 197.857 299.840,198.948 296.248,199.075 295.818 C 199.487 294.421,205.863 313.067,209.053 325.000 C 211.212 333.076,212.053 338.661,211.758 342.962 C 210.865 355.992,238.380 387.387,256.000 393.444 C 262.847 395.797,278.057 392.961,289.992 387.105 C 316.755 373.974,326.872 349.231,317.248 320.446 C 309.008 295.802,293.037 287.394,262.800 291.783 C 251.353 293.445,248.058 293.545,245.924 292.294 C 236.617 286.840,223.633 264.045,220.011 246.800 C 218.909 241.556,218.700 242.655,223.768 227.058 C 244.068 164.587,255.516 115.666,259.865 72.800 C 260.768 63.894,260.903 36.790,260.074 30.800 C 257.096 9.294,252.094 -1.151,246.860 3.210 M138.413 28.500 C 153.988 67.888,212.860 218.721,213.080 219.800 C 213.222 220.493,212.687 220.794,209.088 222.047 L 204.932 223.494 205.857 221.247 C 209.100 213.362,204.215 204.851,196.018 204.108 C 181.587 202.800,176.602 223.271,190.147 228.217 C 191.234 228.614,191.049 228.725,186.598 230.349 C 184.016 231.292,181.769 231.914,181.605 231.732 C 180.698 230.724,167.414 194.541,161.217 176.200 C 137.486 105.955,126.762 44.873,133.462 18.100 C 133.798 16.755,133.627 16.395,138.413 28.500 M250.526 22.800 C 251.087 25.770,251.782 29.910,252.070 32.000 C 252.779 37.136,252.779 62.351,252.071 69.400 C 248.093 108.961,239.533 148.290,223.123 202.400 C 219.544 214.204,219.398 214.590,218.959 213.400 C 217.220 208.685,201.458 168.486,201.005 167.609 C 200.013 165.691,199.605 167.009,222.378 98.610 C 234.466 62.305,245.362 29.360,246.592 25.400 C 249.250 16.841,249.181 17.044,249.363 17.243 C 249.442 17.329,249.966 19.830,250.526 22.800 M198.279 209.638 C 200.272 210.603,202.135 213.338,201.928 214.997 C 201.809 215.955,201.548 215.774,198.208 212.414 C 194.348 208.529,194.368 207.745,198.279 209.638 M195.600 216.358 C 200.359 220.904,200.567 221.169,199.909 221.844 C 199.250 222.520,199.084 222.424,196.309 219.773 C 194.709 218.244,192.267 215.962,190.883 214.702 C 188.674 212.691,188.419 212.312,188.800 211.600 C 189.390 210.497,189.671 210.693,195.600 216.358 M193.000 223.216 L 193.800 224.122 192.414 223.854 C 189.741 223.336,187.675 221.335,187.031 218.638 C 186.753 217.473,190.396 220.267,193.000 223.216 M210.828 233.530 C 208.495 256.081,230.403 297.920,246.268 301.214 L 248.405 301.658 246.121 302.876 C 221.496 316.017,220.359 357.145,244.136 374.671 C 254.636 382.410,270.753 384.818,283.800 380.598 C 285.968 379.897,282.857 381.381,279.885 382.466 C 273.269 384.880,269.024 385.739,263.550 385.771 L 258.500 385.800 254.693 383.875 C 245.706 379.332,234.038 367.755,224.985 354.400 C 220.278 347.457,219.812 346.254,219.947 341.396 C 220.314 328.176,207.518 289.390,187.449 242.887 L 186.019 239.574 186.910 239.193 C 190.180 237.793,211.006 229.672,211.095 229.762 C 211.157 229.823,211.036 231.519,210.828 233.530 M186.816 262.200 C 188.617 266.600,191.137 272.905,192.416 276.211 L 194.742 282.222 192.605 289.011 C 182.581 320.857,179.193 335.942,179.719 346.395 L 179.958 351.145 178.240 354.674 C 171.212 369.114,155.620 386.827,145.671 391.675 C 139.704 394.582,130.341 393.907,118.890 389.744 C 115.262 388.424,115.318 388.195,119.006 389.270 C 135.147 393.975,155.713 386.482,165.179 372.448 C 179.410 351.350,171.458 315.952,150.968 309.189 C 149.534 308.716,149.462 308.000,150.848 308.000 C 160.644 308.000,179.892 276.301,182.630 255.661 C 182.998 252.886,183.014 252.912,186.816 262.200 M285.200 299.380 C 297.202 301.702,304.510 308.756,309.343 322.681 C 316.308 342.747,312.079 360.708,297.615 372.489 C 293.523 375.822,292.906 376.158,295.872 373.439 C 317.932 353.217,309.966 310.052,282.275 299.761 C 279.247 298.636,280.505 298.472,285.200 299.380 M276.600 306.574 C 300.136 312.827,308.696 349.016,290.819 366.691 C 281.994 375.416,265.405 376.971,252.600 370.274 C 230.216 358.566,229.237 320.446,251.042 309.649 C 252.987 308.686,260.169 306.641,264.400 305.845 C 266.360 305.477,274.240 305.948,276.600 306.574 M115.600 308.127 C 88.268 319.412,82.387 364.094,105.800 382.581 C 109.776 385.720,108.351 385.066,103.565 381.554 C 88.819 370.734,83.668 352.879,89.444 332.609 C 93.481 318.438,101.208 310.375,113.200 307.818 C 117.244 306.956,118.154 307.073,115.600 308.127 M141.687 314.926 C 170.365 321.960,172.754 366.324,145.136 378.962 C 121.797 389.642,99.473 375.194,99.460 349.400 C 99.450 331.027,108.983 317.756,125.000 313.846 C 127.428 313.253,137.536 313.907,141.687 314.926 M286.400 379.800 C 285.850 380.114,285.220 380.372,285.000 380.372 C 284.780 380.372,285.050 380.114,285.600 379.800 C 286.150 379.486,286.780 379.228,287.000 379.228 C 287.220 379.228,286.950 379.486,286.400 379.800 " stroke="none" fill="#040404" fill-rule="evenodd"></path><path id="path2" d="M198.666 234.776 C 192.102 237.393,186.653 239.613,186.557 239.710 C 186.460 239.806,187.032 241.396,187.827 243.243 C 207.777 289.571,220.080 326.693,220.169 340.826 C 220.206 346.773,220.599 347.751,226.108 355.600 C 238.514 373.278,253.807 386.034,262.542 385.992 C 266.381 385.974,275.642 384.045,278.823 382.601 L 280.200 381.976 278.400 382.288 C 267.623 384.155,253.989 381.472,245.400 375.794 C 220.453 359.300,220.527 317.171,245.528 302.913 L 247.656 301.700 246.328 301.450 C 229.939 298.368,206.688 252.767,210.764 231.700 C 211.173 229.584,212.596 229.223,198.666 234.776 M284.200 300.256 C 308.238 311.238,316.957 348.175,300.370 368.759 C 297.333 372.528,298.918 371.487,302.633 367.274 C 322.166 345.115,310.464 302.499,284.000 299.416 L 281.800 299.160 284.200 300.256 " stroke="none" fill="#3c3c44" fill-rule="evenodd"></path><path id="path3" d="M199.600 213.800 C 200.795 215.010,201.863 216.000,201.973 216.000 C 202.083 216.000,201.195 215.010,200.000 213.800 C 198.805 212.590,197.737 211.600,197.627 211.600 C 197.517 211.600,198.405 212.590,199.600 213.800 M197.600 218.600 C 199.017 220.030,200.267 221.200,200.377 221.200 C 200.487 221.200,199.417 220.030,198.000 218.600 C 196.583 217.170,195.333 216.000,195.223 216.000 C 195.113 216.000,196.183 217.170,197.600 218.600 M210.509 234.400 C 210.509 235.390,210.587 235.795,210.682 235.300 C 210.778 234.805,210.778 233.995,210.682 233.500 C 210.587 233.005,210.509 233.410,210.509 234.400 M210.501 239.800 C 210.505 240.680,210.587 240.993,210.683 240.495 C 210.779 239.998,210.775 239.278,210.675 238.895 C 210.575 238.513,210.496 238.920,210.501 239.800 M182.630 255.661 C 179.892 276.301,160.644 308.000,150.848 308.000 C 149.462 308.000,149.534 308.716,150.968 309.189 C 171.458 315.952,179.410 351.350,165.179 372.448 C 155.713 386.482,135.147 393.975,119.006 389.270 C 115.318 388.195,115.262 388.424,118.890 389.744 C 130.341 393.907,139.704 394.582,145.671 391.675 C 155.620 386.827,171.212 369.114,178.240 354.674 L 179.958 351.145 179.719 346.395 C 179.193 335.942,182.581 320.857,192.605 289.011 L 194.742 282.222 192.416 276.211 C 189.061 267.540,183.595 254.255,183.226 253.875 C 183.052 253.696,182.784 254.500,182.630 255.661 M219.600 270.949 C 219.600 271.381,221.189 274.400,221.416 274.400 C 221.526 274.400,221.230 273.635,220.759 272.700 C 219.832 270.861,219.600 270.511,219.600 270.949 M223.400 278.400 C 223.741 279.060,224.111 279.600,224.221 279.600 C 224.331 279.600,224.141 279.060,223.800 278.400 C 223.459 277.740,223.089 277.200,222.979 277.200 C 222.869 277.200,223.059 277.740,223.400 278.400 M230.000 288.400 C 230.470 289.060,230.944 289.600,231.054 289.600 C 231.164 289.600,230.870 289.060,230.400 288.400 C 229.930 287.740,229.456 287.200,229.346 287.200 C 229.236 287.200,229.530 287.740,230.000 288.400 M231.600 290.525 C 231.600 290.594,232.185 291.179,232.900 291.825 L 234.200 293.000 233.025 291.700 C 231.930 290.488,231.600 290.216,231.600 290.525 M236.800 295.725 C 236.800 295.794,237.385 296.379,238.100 297.025 L 239.400 298.200 238.225 296.900 C 237.130 295.688,236.800 295.416,236.800 295.725 M280.700 299.212 C 281.237 299.428,281.963 299.428,282.500 299.212 C 283.235 298.917,283.070 298.851,281.600 298.851 C 280.130 298.851,279.965 298.917,280.700 299.212 M295.200 308.200 C 296.617 309.630,297.867 310.800,297.977 310.800 C 298.087 310.800,297.017 309.630,295.600 308.200 C 294.183 306.770,292.933 305.600,292.823 305.600 C 292.713 305.600,293.783 306.770,295.200 308.200 M300.000 307.000 C 300.746 307.770,301.447 308.400,301.557 308.400 C 301.667 308.400,301.146 307.770,300.400 307.000 C 299.654 306.230,298.953 305.600,298.843 305.600 C 298.733 305.600,299.254 306.230,300.000 307.000 M238.187 308.500 L 235.800 311.000 238.300 308.613 C 239.675 307.299,240.800 306.174,240.800 306.113 C 240.800 305.817,240.405 306.178,238.187 308.500 M113.200 307.818 C 101.208 310.375,93.481 318.438,89.444 332.609 C 83.668 352.879,88.819 370.734,103.565 381.554 C 108.351 385.066,109.776 385.720,105.800 382.581 C 82.387 364.094,88.268 319.412,115.600 308.127 C 118.154 307.073,117.244 306.956,113.200 307.818 M308.493 338.000 C 308.493 338.770,308.575 339.085,308.676 338.700 C 308.776 338.315,308.776 337.685,308.676 337.300 C 308.575 336.915,308.493 337.230,308.493 338.000 M220.124 340.200 C 220.126 341.520,220.201 342.012,220.290 341.293 C 220.379 340.574,220.377 339.494,220.286 338.893 C 220.195 338.292,220.122 338.880,220.124 340.200 M312.514 341.000 C 312.517 342.100,312.595 342.503,312.687 341.895 C 312.779 341.286,312.777 340.386,312.682 339.895 C 312.587 339.403,312.511 339.900,312.514 341.000 M226.893 342.800 C 226.893 343.570,226.975 343.885,227.076 343.500 C 227.176 343.115,227.176 342.485,227.076 342.100 C 226.975 341.715,226.893 342.030,226.893 342.800 M308.501 346.200 C 308.505 347.080,308.587 347.393,308.683 346.895 C 308.779 346.398,308.775 345.678,308.675 345.295 C 308.575 344.913,308.496 345.320,308.501 346.200 M228.000 358.800 C 228.470 359.460,228.944 360.000,229.054 360.000 C 229.164 360.000,228.870 359.460,228.400 358.800 C 227.930 358.140,227.456 357.600,227.346 357.600 C 227.236 357.600,227.530 358.140,228.000 358.800 M308.278 359.005 C 307.912 359.772,307.695 360.400,307.796 360.400 C 308.070 360.400,309.284 357.951,309.101 357.768 C 309.014 357.681,308.644 358.238,308.278 359.005 M233.600 365.800 C 234.346 366.570,235.047 367.200,235.157 367.200 C 235.267 367.200,234.746 366.570,234.000 365.800 C 233.254 365.030,232.553 364.400,232.443 364.400 C 232.333 364.400,232.854 365.030,233.600 365.800 M303.375 366.500 L 302.200 367.800 303.500 366.625 C 304.215 365.979,304.800 365.394,304.800 365.325 C 304.800 365.016,304.470 365.288,303.375 366.500 M236.000 367.325 C 236.000 367.394,236.585 367.979,237.300 368.625 L 238.600 369.800 237.425 368.500 C 236.330 367.288,236.000 367.016,236.000 367.325 M239.393 371.906 C 241.809 374.378,243.874 376.400,243.982 376.400 C 244.089 376.400,243.052 375.265,241.677 373.878 C 240.302 372.491,239.277 371.256,239.398 371.135 C 239.520 371.013,239.345 370.686,239.010 370.408 C 238.674 370.130,238.400 370.051,238.400 370.232 C 238.400 370.414,237.635 369.854,236.700 368.987 C 235.765 368.121,236.977 369.434,239.393 371.906 M300.378 369.900 L 299.000 371.400 300.500 370.022 C 301.896 368.738,302.184 368.400,301.878 368.400 C 301.812 368.400,301.137 369.075,300.378 369.900 M295.800 373.457 C 294.480 374.681,293.940 375.320,294.600 374.878 C 296.359 373.700,299.064 371.233,298.600 371.232 C 298.380 371.232,297.120 372.233,295.800 373.457 M240.400 371.725 C 240.400 371.794,240.985 372.379,241.700 373.025 L 243.000 374.200 241.825 372.900 C 240.730 371.688,240.400 371.416,240.400 371.725 M285.600 379.800 C 285.050 380.114,284.780 380.372,285.000 380.372 C 285.220 380.372,285.850 380.114,286.400 379.800 C 286.950 379.486,287.220 379.228,287.000 379.228 C 286.780 379.228,286.150 379.486,285.600 379.800 M265.500 382.682 C 265.995 382.778,266.805 382.778,267.300 382.682 C 267.795 382.587,267.390 382.509,266.400 382.509 C 265.410 382.509,265.005 382.587,265.500 382.682 M273.705 382.687 C 274.314 382.779,275.214 382.777,275.705 382.682 C 276.197 382.587,275.700 382.511,274.600 382.514 C 273.500 382.517,273.097 382.595,273.705 382.687 " stroke="none" fill="#3c3c3c" fill-rule="evenodd"></path><path id="path4" d="M252.093 35.600 C 252.093 36.370,252.175 36.685,252.276 36.300 C 252.376 35.915,252.376 35.285,252.276 34.900 C 252.175 34.515,252.093 34.830,252.093 35.600 M131.748 39.200 C 131.748 41.510,131.814 42.455,131.895 41.300 C 131.976 40.145,131.976 38.255,131.895 37.100 C 131.814 35.945,131.748 36.890,131.748 39.200 M252.520 42.400 C 252.520 43.610,252.595 44.105,252.687 43.500 C 252.778 42.895,252.778 41.905,252.687 41.300 C 252.595 40.695,252.520 41.190,252.520 42.400 M252.528 56.800 C 252.528 58.230,252.601 58.815,252.689 58.100 C 252.778 57.385,252.778 56.215,252.689 55.500 C 252.601 54.785,252.528 55.370,252.528 56.800 M252.093 64.800 C 252.093 65.570,252.175 65.885,252.276 65.500 C 252.376 65.115,252.376 64.485,252.276 64.100 C 252.175 63.715,252.093 64.030,252.093 64.800 M194.800 209.010 C 194.800 209.032,195.384 209.579,196.099 210.225 C 197.231 211.250,197.278 211.265,196.469 210.343 C 195.781 209.559,195.678 209.234,196.071 209.084 C 196.362 208.973,196.195 208.901,195.700 208.926 C 195.205 208.950,194.800 208.988,194.800 209.010 M188.866 211.721 C 188.161 212.569,198.859 222.538,199.764 221.876 C 200.348 221.449,199.801 220.768,195.280 216.295 C 190.030 211.100,189.622 210.809,188.866 211.721 M192.368 222.961 C 192.725 223.392,192.714 223.568,192.317 223.720 C 192.033 223.829,192.199 223.899,192.686 223.875 C 193.511 223.835,193.528 223.783,192.924 223.116 C 192.162 222.274,191.688 222.142,192.368 222.961 " stroke="none" fill="#595959" fill-rule="evenodd"></path></g></svg>